wght1000.ufo
<glyph name="A" format="2">
	<unicode hex="0041"/>
	<advance width="1266"/>
	<outline>
		<contour>
			<point x="-245.5789794922" y="0" type="line"/>
			<point x="-239.4743652344" y="98.9951171875" type="line"/>
			<point x="-29.0355224609" y="121.9951171875" type="line"/>
			<point x="283.8294677734" y="660" type="line"/>
			<point x="814.5625" y="1520" type="line"/>
			<point x="947.8864746094" y="1502" type="line"/>
			<point x="981.8680419922" y="655" type="line"/>
			<point x="1019.5968017578" y="119.9951171875" type="line"/>
			<point x="1219.7312011719" y="99.9951171875" type="line"/>
			<point x="1204.7554931641" y="0" type="line"/>
			<point x="641.2232666016" y="0" type="line"/>
			<point x="666.1989746094" y="99.9951171875" type="line"/>
			<point x="856.3333740234" y="120.9951171875" type="line"/>
			<point x="828.6932373047" y="648" type="line"/>
			<point x="802.99609375" y="1138.77734375" type="line"/>
			<point x="793.5710449219" y="1269.2463378906" type="line"/>
			<point x="774.5710449219" y="1276.2463378906" type="line"/>
			<point x="686.9689941406" y="1139.6623535156" type="line"/>
			<point x="391.1224365234" y="634.6384277344" type="line"/>
			<point x="112.1866455078" y="115.9951171875" type="line"/>
			<point x="309.8865966797" y="98.9951171875" type="line"/>
			<point x="312.7819824219" y="0" type="line"/>
		</contour>
		<contour>
			<point x="240.5931396484" y="508.9597167969" type="line"/>
			<point x="309.5272216797" y="624.1755371094" type="line"/>
			<point x="504.2775268555" y="618.1755371094" type="line"/>
			<point x="491.8356323242" y="522.9597167969" type="line"/>
		</contour>
		<contour>
			<point x="505.9682617188" y="618.1755371094" type="line"/>
			<point x="1017.9664306641" y="626.1755371094" type="line"/>
			<point x="1030.8328857422" y="520.9597167969" type="line"/>
			<point x="493.5263671875" y="522.9597167969" type="line"/>
		</contour>
	</outline>
	<anchor name="bottom" x="523" y="0"/>
	<anchor name="ogonek" x="1098" y="0"/>
	<anchor name="top" x="954" y="1500"/>
	<anchor name="tonos" x="613" y="1500"/>
</glyph>
<glyph name="F" format="2">
	<unicode hex="0046"/>
	<advance width="1070"/>
	<outline>
		<contour>
			<point x="-68.2356567383" y="0" type="line"/>
			<point x="-51.0866088867" y="99.9951171875" type="line"/>
			<point x="135.2655639648" y="119.9951171875" type="line"/>
			<point x="276.1165161133" y="806" type="line"/>
			<point x="376.9674682617" y="1364.0048828125" type="line"/>
			<point x="161.6586303711" y="1387.0048828125" type="line"/>
			<point x="168.8726806641" y="1500" type="line"/>
			<point x="1130.3501586914" y="1500" type="line"/>
			<point x="1084.0543823242" y="1150.0173339844" type="line"/>
			<point x="985.8041381836" y="1150.0173339844" type="line"/>
			<point x="968.8180541992" y="1369.9216308594" type="line"/>
			<point x="570.0752563477" y="1369.9216308594" type="line"/>
			<point x="530.0752563477" y="1345.9216308594" type="line"/>
			<point x="419.610168457" y="760" type="line"/>
			<point x="299.7592163086" y="119.9951171875" type="line"/>
			<point x="559.5469360352" y="99.9951171875" type="line"/>
			<point x="540.7239990234" y="0" type="line"/>
		</contour>
		<contour>
			<point x="217.6675415039" y="723.0041503906" type="line"/>
			<point x="238.6992797852" y="813.5666503906" type="line"/>
			<point x="761.266418457" y="827.5666503906" type="line"/>
			<point x="822.8446655273" y="995.9066162109" type="line"/>
			<point x="908.4470825195" y="995.9066162109" type="line"/>
			<point x="818.4270629883" y="530.4932861328" type="line"/>
			<point x="732.8246459961" y="530.4932861328" type="line"/>
			<point x="736.1353149414" y="706.8054199219" type="line"/>
		</contour>
	</outline>
	<anchor name="bottom" x="578" y="0"/>
	<anchor name="top" x="622" y="1500"/>
</glyph>
<glyph name="G" format="2">
	<unicode hex="0047"/>
	<advance width="1363"/>
	<outline>
		<contour>
			<point x="83.5637817383" y="786" type="qcurve" smooth="yes"/>
			<point x="137.5637817383" y="1143"/>
			<point x="565.8717651367" y="1551.6780395508"/>
			<point x="964.4179077148" y="1520.8657836914" type="qcurve" smooth="yes"/>
			<point x="1073.5817260742" y="1510.7608032227"/>
			<point x="1235.8998413086" y="1457.1045532227"/>
			<point x="1269.4565429688" y="1439.5330200195" type="qcurve" smooth="yes"/>
			<point x="1288.4745919364" y="1428.1998291016" type="line"/>
			<point x="1303.6183297294" y="1415" type="line"/>
			<point x="1234.3301217215" y="1025.2333984375" type="line"/>
			<point x="1129.0781685965" y="1025.2333984375" type="line"/>
			<point x="1140.5996529715" y="1249.3063964844" type="line"/>
			<point x="1100.3613891602" y="1312.9443969727"/>
			<point x="986.0361328125" y="1378.487121582"/>
			<point x="919.5147705078" y="1390.1721801758" type="qcurve" smooth="yes"/>
			<point x="691.9755249023" y="1433.321105957"/>
			<point x="320.1231079102" y="1107"/>
			<point x="271.5706176758" y="759" type="qcurve" smooth="yes"/>
			<point x="230.0979003906" y="466"/>
			<point x="471.1596679688" y="151.164855957"/>
			<point x="689.2197265625" y="135.479309082" type="qcurve" smooth="yes"/>
			<point x="788.8657226562" y="129.2192993164"/>
			<point x="953.9951782227" y="145.0783691406"/>
			<point x="1032.4810180664" y="171.0783691406" type="qcurve"/>
			<point x="1109.2937447684" y="586.0048828125" type="line"/>
			<point x="918.7501656669" y="611.3049316406" type="line"/>
			<point x="928.4167306083" y="712" type="line"/>
			<point x="1381.7717721122" y="712" type="line"/>
			<point x="1369.4529854911" y="609.5548095703" type="line"/>
			<point x="1226.7505318778" y="585.0048828125" type="line"/>
			<point x="1156.8995797294" y="181" type="line"/>
			<point x="1028.0264282227" y="124" type="line"/>
			<point x="947.6504516602" y="55.6574707031"/>
			<point x="760.8171386719" y="-31.5990600586"/>
			<point x="640.4116210938" y="-24.5990600586" type="qcurve" smooth="yes"/>
			<point x="418.4689941406" y="-17.4166870117"/>
			<point x="26.5637817383" y="408"/>
		</contour>
	</outline>
	<anchor name="bottom" x="667" y="0"/>
	<anchor name="top" x="907" y="1492"/>
</glyph>
<glyph name="H" format="2">
	<unicode hex="0048"/>
	<advance width="1596"/>
	<outline>
		<contour>
			<point x="-65.421875" y="0" type="line"/>
			<point x="-48.2728271484" y="99.9951171875" type="line"/>
			<point x="138.405456543" y="119.9951171875" type="line"/>
			<point x="279.2564086914" y="806" type="line"/>
			<point x="380.1073608398" y="1364.0048828125" type="line"/>
			<point x="161.5374145508" y="1387.0048828125" type="line"/>
			<point x="168.0992431641" y="1500" type="line"/>
			<point x="760.3754272461" y="1500" type="line"/>
			<point x="740.5524902344" y="1387.0048828125" type="line"/>
			<point x="547.8525390625" y="1364.0048828125" type="line"/>
			<point x="434.2632446289" y="790" type="line"/>
			<point x="306.4122924805" y="119.9951171875" type="line"/>
			<point x="511.00390625" y="99.9951171875" type="line"/>
			<point x="507.1159667969" y="0" type="line"/>
		</contour>
		<contour>
			<point x="329.410949707" y="724.1838378906" type="line"/>
			<point x="344.2503051758" y="841.2875976562" type="line"/>
			<point x="769.3962402344" y="837.2875976562" type="line"/>
			<point x="1171.484375" y="841.2875976562" type="line"/>
			<point x="1156.6450195312" y="724.1838378906" type="line"/>
			<point x="752.0437011719" y="728.1838378906" type="line"/>
		</contour>
		<contour>
			<point x="812.9949951172" y="0" type="line"/>
			<point x="830.1440429688" y="99.9951171875" type="line"/>
			<point x="1026.8223266602" y="119.9951171875" type="line"/>
			<point x="1162.6732788086" y="788" type="line"/>
			<point x="1268.524230957" y="1364.0048828125" type="line"/>
			<point x="1059.954284668" y="1387.0048828125" type="line"/>
			<point x="1066.5161132812" y="1500" type="line"/>
			<point x="1657.2322387695" y="1500" type="line"/>
			<point x="1637.4093017578" y="1387.0048828125" type="line"/>
			<point x="1436.0354614258" y="1364.0048828125" type="line"/>
			<point x="1317.1845092773" y="771" type="line"/>
			<point x="1194.3335571289" y="119.9951171875" type="line"/>
			<point x="1407.5990600586" y="99.9951171875" type="line"/>
			<point x="1403.7111206055" y="0" type="line"/>
		</contour>
	</outline>
	<anchor name="bottom" x="607" y="0"/>
	<anchor name="center" x="820" y="1079"/>
	<anchor name="top" x="950" y="1500"/>
	<anchor name="tonos" x="81" y="1500"/>
	<anchor name="cy_descender" x="1399" y="100"/>
</glyph>
<glyph name="J" format="2">
	<unicode hex="004A"/>
	<advance width="812"/>
	<outline>
		<contour>
			<point x="-188.577331543" y="-215" type="qcurve"/>
			<point x="-148.551940918" y="-74.5622558594" type="line"/>
			<point x="-126.8434448242" y="-81.5622558594"/>
			<point x="-38.8013305664" y="-99.5622558594"/>
			<point x="29.8767700195" y="-99.5622558594" type="qcurve" smooth="yes"/>
			<point x="105.9819946289" y="-99.5622558594"/>
			<point x="215.8023071289" y="-9.6616210938"/>
			<point x="245.7029418945" y="140.4377441406" type="qcurve" smooth="yes"/>
			<point x="369.9275512695" y="754" type="line"/>
			<point x="482.6284790039" y="1364.0048828125" type="line"/>
			<point x="260.341003418" y="1387.0048828125" type="line"/>
			<point x="265.8787231445" y="1500" type="line"/>
			<point x="857.9166870117" y="1500" type="line"/>
			<point x="842.3789672852" y="1387.0048828125" type="line"/>
			<point x="647.0243530273" y="1364.0048828125" type="line"/>
			<point x="526.1734008789" y="754" type="line"/>
			<point x="418.9234008789" y="224" type="line" smooth="yes"/>
			<point x="369.6734008789" y="-17"/>
			<point x="162.1940307617" y="-260"/>
			<point x="11.4038696289" y="-260" type="qcurve" smooth="yes"/>
			<point x="-55.4091186523" y="-260"/>
			<point x="-196.5296020508" y="-227"/>
		</contour>
	</outline>
	<anchor name="bottom" x="376" y="-208"/>
	<anchor name="top" x="533" y="1500"/>
	<anchor name="_liga" x="0" y="0"/>
</glyph>
<glyph name="K" format="2">
	<unicode hex="004B"/>
	<advance width="1237"/>
	<outline>
		<contour>
			<point x="-65.0313110352" y="0" type="line"/>
			<point x="-51.143371582" y="99.9951171875" type="line"/>
			<point x="138.1437988281" y="119.9951171875" type="line"/>
			<point x="278.9947509766" y="806" type="line"/>
			<point x="379.6956787109" y="1364.0048828125" type="line"/>
			<point x="161.4518432617" y="1387.0048828125" type="line"/>
			<point x="168.4898071289" y="1500" type="line"/>
			<point x="759.0447998047" y="1500" type="line"/>
			<point x="742.0068359375" y="1387.0048828125" type="line"/>
			<point x="549.9591064453" y="1364.0048828125" type="line"/>
			<point x="436.2581787109" y="790" type="line"/>
			<point x="311" y="124" type="line"/>
			<point x="511.042175293" y="99.9951171875" type="line"/>
			<point x="500.1542358398" y="0" type="line"/>
		</contour>
		<contour>
			<point x="303" y="540" type="line"/>
			<point x="331" y="693" type="line"/>
			<point x="1011.8275146484" y="1364.0048828125" type="line"/>
			<point x="861.6292114258" y="1387.0048828125" type="line"/>
			<point x="875.667175293" y="1500" type="line"/>
			<point x="1438.9979248047" y="1500" type="line"/>
			<point x="1424.9599609375" y="1387.0048828125" type="line"/>
			<point x="1233.7388916016" y="1364.0048828125" type="line"/>
		</contour>
		<contour>
			<point x="589" y="874" type="line"/>
			<point x="717" y="993" type="line"/>
			<point x="1065.5405273438" y="119.9951171875" type="line"/>
			<point x="1241.3921508789" y="99.9951171875" type="line"/>
			<point x="1235.5042114258" y="0" type="line"/>
			<point x="696.0380859375" y="0" type="line"/>
			<point x="705.9260253906" y="99.9951171875" type="line"/>
			<point x="875" y="124" type="line"/>
		</contour>
	</outline>
	<anchor name="bottom" x="607" y="0"/>
	<anchor name="top" x="896" y="1500"/>
	<anchor name="kai_tail" x="1201" y="100"/>
</glyph>
<glyph name="L" format="2">
	<unicode hex="004C"/>
	<advance width="1098"/>
	<outline>
		<contour>
			<point x="-62.4791870117" y="0" type="line"/>
			<point x="-48.2651367188" y="99.9951171875" type="line"/>
			<point x="141.0220336914" y="119.9951171875" type="line"/>
			<point x="281.8729858398" y="806" type="line"/>
			<point x="382.7239379883" y="1364.0048828125" type="line"/>
			<point x="160.8928833008" y="1387.0048828125" type="line"/>
			<point x="167.7808227539" y="1500" type="line"/>
			<point x="783.0798950195" y="1500" type="line"/>
			<point x="766.1919555664" y="1387.0048828125" type="line"/>
			<point x="546.9697875977" y="1364.0048828125" type="line"/>
			<point x="426.1188354492" y="754" type="line"/>
			<point x="311.2562866211" y="154.79296875" type="line"/>
			<point x="344.2562866211" y="127.79296875" type="line"/>
			<point x="784.9551391602" y="127.79296875" type="line"/>
			<point x="950.8577270508" y="377.2042236328" type="line"/>
			<point x="1056.1366577148" y="377.2042236328" type="line"/>
			<point x="895.8148803711" y="0" type="line"/>
		</contour>
	</outline>
	<anchor name="bottom" x="535" y="0"/>
	<anchor name="centerright" x="755" y="750"/>
	<anchor name="top" x="878" y="1500"/>
	<anchor name="topright" x="804" y="1001"/>
	<anchor name="center" x="397" y="750"/>
	<anchor name="liga" x="1104" y="0"/>
</glyph>
<glyph name="M" format="2">
	<unicode hex="004D"/>
	<advance width="1830"/>
	<outline>
		<contour>
			<point x="-89.099609375" y="0" type="line"/>
			<point x="-76.2116699219" y="99.9951171875" type="line"/>
			<point x="128.0971679688" y="134.9951171875" type="line"/>
			<point x="249.9481201172" y="754" type="line"/>
			<point x="365.6490478516" y="1361.0048828125" type="line"/>
			<point x="151.3185424805" y="1387.0048828125" type="line"/>
			<point x="163.3565063477" y="1500" type="line"/>
			<point x="552.4759521484" y="1500" type="line"/>
			<point x="688.5479736328" y="780.0969238281" type="line"/>
			<point x="815" y="327" type="line"/>
			<point x="831" y="213" type="line"/>
			<point x="841" y="213" type="line"/>
			<point x="900" y="327" type="line"/>
			<point x="1125.4090576172" y="893.9887695312" type="line"/>
			<point x="1485.3934326172" y="1500" type="line"/>
			<point x="1887.6708374023" y="1500" type="line"/>
			<point x="1869.0239868164" y="1387.0048828125" type="line"/>
			<point x="1665.6934814453" y="1364.0048828125" type="line"/>
			<point x="1544.9925537109" y="754" type="line"/>
			<point x="1424.1416015625" y="119.9951171875" type="line"/>
			<point x="1637.733215332" y="99.9951171875" type="line"/>
			<point x="1631.8452758789" y="0" type="line"/>
			<point x="1043.7856445312" y="0" type="line"/>
			<point x="1059.6735839844" y="99.9951171875" type="line"/>
			<point x="1264.8957519531" y="119.9951171875" type="line"/>
			<point x="1390.7467041016" y="751.2478027344" type="line"/>
			<point x="1580" y="1244" type="line"/>
			<point x="1606" y="1363" type="line"/>
			<point x="1597" y="1365" type="line"/>
			<point x="1539" y="1258" type="line"/>
			<point x="1150.4173583984" y="719.5905761719" type="line"/>
			<point x="721.6380615234" y="0" type="line"/>
			<point x="718.8621826172" y="0" type="line"/>
			<point x="572.9571533203" y="678.9174804688" type="line"/>
			<point x="499" y="1249" type="line"/>
			<point x="485" y="1357" type="line"/>
			<point x="474" y="1355" type="line"/>
			<point x="456" y="1235" type="line"/>
			<point x="345.3985595703" y="754" type="line"/>
			<point x="227.5476074219" y="134.9951171875" type="line"/>
			<point x="418.4436645508" y="99.9951171875" type="line"/>
			<point x="399.2946166992" y="0" type="line"/>
		</contour>
	</outline>
	<anchor name="bottom" x="768" y="0"/>
	<anchor name="top" x="1048" y="1500"/>
</glyph>
<glyph name="N" format="2">
	<unicode hex="004E"/>
	<advance width="1417"/>
	<outline>
		<contour>
			<point x="-104.9095458984" y="0" type="line"/>
			<point x="-93.0216064453" y="99.9951171875" type="line"/>
			<point x="125.2655639648" y="134.9951171875" type="line"/>
			<point x="248.1165161133" y="754" type="line"/>
			<point x="363.9674682617" y="1361.0048828125" type="line"/>
			<point x="148.9847412109" y="1388.0048828125" type="line"/>
			<point x="159.8726806641" y="1500" type="line"/>
			<point x="594.8684692383" y="1500" type="line"/>
			<point x="829.3574829102" y="803.5759277344" type="line"/>
			<point x="958" y="418" type="line"/>
			<point x="990" y="317" type="line"/>
			<point x="1001" y="319" type="line"/>
			<point x="1024" y="440" type="line"/>
			<point x="1076.0676879883" y="803" type="line"/>
			<point x="1180.9186401367" y="1353.0048828125" type="line"/>
			<point x="947.0659179688" y="1387.0048828125" type="line"/>
			<point x="964.9321899414" y="1500" type="line"/>
			<point x="1535.9617919922" y="1500" type="line"/>
			<point x="1518.0955200195" y="1387.0048828125" type="line"/>
			<point x="1307.1344604492" y="1353.0048828125" type="line"/>
			<point x="1194.637512207" y="779" type="line"/>
			<point x="1038.2835083008" y="0" type="line"/>
			<point x="930.8059692383" y="0" type="line"/>
			<point x="670.5913696289" y="700.7397460938" type="line"/>
			<point x="507" y="1220" type="line"/>
			<point x="471" y="1324" type="line"/>
			<point x="461" y="1321" type="line"/>
			<point x="442" y="1199" type="line"/>
			<point x="359.3323364258" y="701" type="line"/>
			<point x="251.4813842773" y="134.9951171875" type="line"/>
			<point x="470.3991088867" y="99.9951171875" type="line"/>
			<point x="460.5111694336" y="0" type="line"/>
		</contour>
	</outline>
	<anchor name="bottom" x="640" y="0"/>
	<anchor name="top" x="884" y="1500"/>
	<anchor name="engtail" x="1041" y="0"/>
	<anchor name="liga" x="1432" y="0"/>
</glyph>
<glyph name="Q" format="2">
	<unicode hex="0051"/>
	<advance width="1554"/>
	<outline>
		<contour>
			<point x="96.7645404917" y="884" type="qcurve" smooth="yes"/>
			<point x="179.5255268199" y="1244"/>
			<point x="738.8911743164" y="1556.8477172852"/>
			<point x="930.9333637339" y="1520.8657836914" type="qcurve" smooth="yes"/>
			<point x="1245.5542602539" y="1472.573059082"/>
			<point x="1514.0357807261" y="1019"/>
			<point x="1432.0662983042" y="649" type="qcurve" smooth="yes"/>
			<point x="1349.5883178711" y="280"/>
			<point x="843.3675068003" y="-37.7478637695"/>
			<point x="582.4883564097" y="13.3348999023" type="qcurve" smooth="yes"/>
			<point x="287.7354267222" y="69.3317260742"/>
			<point x="15.0035541636" y="524"/>
		</contour>
		<contour>
			<point x="273.4796283824" y="842" type="qcurve" smooth="yes"/>
			<point x="207.5095356089" y="530.6976318359"/>
			<point x="359.7436523438" y="189.8845825195"/>
			<point x="601.7283935547" y="148.1215209961" type="qcurve" smooth="yes"/>
			<point x="855.3972167969" y="105.1801147461"/>
			<point x="1184.9258564097" y="411.7490844727"/>
			<point x="1245.0506733042" y="719" type="qcurve" smooth="yes"/>
			<point x="1309.7179706675" y="1048.7598876953"/>
			<point x="1105.4923236949" y="1355.563293457"/>
			<point x="889.7942035777" y="1390.6626586914" type="qcurve" smooth="yes"/>
			<point x="649.4030902964" y="1429.6333618164"/>
			<point x="340.360365687" y="1158.9968261719"/>
		</contour>
		<contour>
			<point x="452.5411987305" y="7.0180664062" type="qcurve"/>
			<point x="480.7518920898" y="21.8022460938" type="line"/>
			<point x="1097.2465209961" y="-258.1896972656" type="line" smooth="yes"/>
			<point x="1194.3087768555" y="-309.6040039062"/>
			<point x="1344.8373413086" y="-252.7099609375"/>
			<point x="1391.3676147461" y="-200.6721191406" type="qcurve"/>
			<point x="1486.2247924805" y="-281.8149414062" type="line"/>
			<point x="1505.2086791992" y="-241.5341796875"/>
			<point x="1233.0216674805" y="-452.6870117188"/>
			<point x="1098.2958374023" y="-416.8996582031" type="qcurve"/>
			<point x="361.6818237305" y="-121.4792480469" type="line"/>
			<point x="301.3412475586" y="-97.0915527344"/>
			<point x="162.4432983398" y="-122.2531738281"/>
			<point x="85.1525268555" y="-159.8259277344" type="qcurve"/>
			<point x="48.2037963867" y="-78.6281738281" type="line"/>
			<point x="32.9962768555" y="-76.3217773438"/>
			<point x="336.362487793" y="47.6433105469"/>
		</contour>
		<contour>
			<point x="329.264831543" y="48.6325683594" type="line"/>
			<point x="412.3973999023" y="110.1257324219"/>
			<point x="558.7064819336" y="261.6892089844"/>
			<point x="696.9823608398" y="428.09765625" type="qcurve" smooth="yes"/>
			<point x="705.7723999023" y="434.3076171875"/>
			<point x="718.6674194336" y="442.4899902344"/>
			<point x="731.799987793" y="453.4899902344" type="qcurve"/>
			<point x="755.0099487305" y="439.4624023438"/>
			<point x="838.1071166992" y="383.4487304688"/>
			<point x="848.3170776367" y="368.6586914062" type="qcurve"/>
			<point x="836.632019043" y="354.763671875"/>
			<point x="820.4994506836" y="341.0012207031"/>
			<point x="810.1569213867" y="333.6862792969" type="qcurve" smooth="yes"/>
			<point x="673.366394043" y="185.9233398438"/>
			<point x="564.4833374023" y="89.1010742188"/>
			<point x="477.0866088867" y="23.8186035156" type="qcurve"/>
		</contour>
	</outline>
	<anchor name="bottom" x="832" y="0"/>
	<anchor name="top" x="832" y="1500"/>
</glyph>
<glyph name="U" format="2">
	<unicode hex="0055"/>
	<advance width="1448"/>
	<outline>
		<contour>
			<point x="113.8174438477" y="1387.0048828125" type="line"/>
			<point x="122.1815185547" y="1500" type="line"/>
			<point x="741.2211470171" y="1500" type="line"/>
			<point x="722.85707231" y="1387.0048828125" type="line"/>
			<point x="512.1464233398" y="1353.0048828125" type="line"/>
			<point x="400.4454956055" y="794" type="line" smooth="yes"/>
			<point x="378.6018676758" y="683.9323730469"/>
			<point x="343.2326049805" y="447.3532714844"/>
			<point x="348.6298994585" y="367.0805664062" type="qcurve" smooth="yes"/>
			<point x="360.7446899414" y="249.5301513672"/>
			<point x="497.8986982866" y="92.7977294922"/>
			<point x="609.6120771928" y="92.7977294922" type="qcurve" smooth="yes"/>
			<point x="786.9710859819" y="92.7977294922"/>
			<point x="980.1358809038" y="274.4191894531"/>
			<point x="1022.9044355913" y="480.486328125" type="qcurve" smooth="yes"/>
			<point x="1085.8686689897" y="794" type="line"/>
			<point x="1193.5695967241" y="1353.0048828125" type="line"/>
			<point x="968.3257612749" y="1387.0048828125" type="line"/>
			<point x="986.2627119585" y="1500" type="line"/>
			<point x="1556.5745405717" y="1500" type="line"/>
			<point x="1538.2104658647" y="1387.0048828125" type="line"/>
			<point x="1329.5105146928" y="1353.0048828125" type="line"/>
			<point x="1219.382462935" y="794" type="line"/>
			<point x="1160.382462935" y="478" type="line" smooth="yes"/>
			<point x="1115.1346602007" y="237.3068847656"/>
			<point x="862.2080244585" y="-28.9339599609"/>
			<point x="616.2138838335" y="-28.9339599609" type="qcurve" smooth="yes"/>
			<point x="409.9895185991" y="-28.9339599609"/>
			<point x="196.1985473633" y="194"/>
			<point x="184.0837568803" y="416" type="qcurve" smooth="yes"/>
			<point x="178.6864624023" y="519"/>
			<point x="213.6864624023" y="705"/>
			<point x="230.6864624023" y="794" type="qcurve" smooth="yes"/>
			<point x="338.3873901367" y="1353.0048828125" type="line"/>
		</contour>
	</outline>
	<anchor name="bottom" x="588" y="0"/>
	<anchor name="ogonek" x="810" y="0"/>
	<anchor name="top" x="908" y="1500"/>
	<anchor name="topright" x="1561" y="1500"/>
</glyph>
<glyph name="V" format="2">
	<unicode hex="0056"/>
	<advance width="1191"/>
	<outline>
		<contour>
			<point x="37.2810058594" y="1385.9547119141" type="line"/>
			<point x="57.0778808594" y="1500" type="line"/>
			<point x="591.9432373047" y="1500" type="line"/>
			<point x="572.5964355469" y="1388.0550537109" type="line"/>
			<point x="364.0718994141" y="1353.0048828125" type="line"/>
			<point x="403.9753417969" y="746.4597167969" type="line"/>
			<point x="438" y="390" type="line"/>
			<point x="442" y="261" type="line"/>
			<point x="460" y="261" type="line"/>
			<point x="527" y="390" type="line"/>
			<point x="751.1586914062" y="832.3986816406" type="line"/>
			<point x="1030.9460449219" y="1353.0048828125" type="line"/>
			<point x="818.6360473633" y="1387.9050292969" type="line"/>
			<point x="835.3739624023" y="1500" type="line"/>
			<point x="1377.7127075195" y="1500" type="line"/>
			<point x="1360.5247192383" y="1385.8046875" type="line"/>
			<point x="1177.9682617188" y="1353.0048828125" type="line"/>
			<point x="856.1020507812" y="787.1452636719" type="line"/>
			<point x="414.2416992188" y="0" type="line"/>
			<point x="315.2265625" y="0" type="line"/>
			<point x="251.5212402344" y="748.7338867188" type="line"/>
			<point x="209.3919677734" y="1353.0048828125" type="line"/>
		</contour>
	</outline>
	<anchor name="bottom" x="373" y="0"/>
	<anchor name="top" x="743" y="1500"/>
</glyph>
<glyph name="W" format="2">
	<unicode hex="0057"/>
	<advance width="1866"/>
	<outline>
		<contour>
			<point x="25.9405517578" y="1387.0048828125" type="line"/>
			<point x="46.5657348633" y="1500" type="line"/>
			<point x="596.8640136719" y="1500" type="line"/>
			<point x="576.2388305664" y="1387.0048828125" type="line"/>
			<point x="397.6916503906" y="1353.0048828125" type="line"/>
			<point x="401.8833007812" y="841.8759765625" type="line"/>
			<point x="410" y="400" type="line"/>
			<point x="410" y="271" type="line"/>
			<point x="427" y="271" type="line"/>
			<point x="497" y="400" type="line"/>
			<point x="726.0629882812" y="784.2387695312" type="line"/>
			<point x="913" y="1121" type="line"/>
			<point x="918.3586425781" y="1356.0048828125" type="line"/>
			<point x="759.7464599609" y="1390.0048828125" type="line"/>
			<point x="779.0455322266" y="1500" type="line"/>
			<point x="1270.3049926758" y="1500" type="line"/>
			<point x="1251.6581420898" y="1390.0048828125" type="line"/>
			<point x="1073.4154052734" y="1356.0048828125" type="line"/>
			<point x="1084.2310791016" y="880.8597412109" type="line"/>
			<point x="1094" y="400" type="line"/>
			<point x="1094" y="271" type="line"/>
			<point x="1111" y="271" type="line"/>
			<point x="1177" y="400" type="line"/>
			<point x="1405.818359375" y="816.8852539062" type="line"/>
			<point x="1672.0483398438" y="1353.0048828125" type="line"/>
			<point x="1466.4567260742" y="1387.0048828125" type="line"/>
			<point x="1483.4946899414" y="1500" type="line"/>
			<point x="2049.655456543" y="1500" type="line"/>
			<point x="1972" y="1385" type="line"/>
			<point x="1832.0703125" y="1353.0048828125" type="line"/>
			<point x="1519.4050292969" y="765.7209472656" type="line"/>
			<point x="1103.3562011719" y="0" type="line"/>
			<point x="949.3054199219" y="0" type="line"/>
			<point x="923" y="805" type="line"/>
			<point x="921" y="934" type="line"/>
			<point x="911" y="934" type="line"/>
			<point x="844" y="805" type="line"/>
			<point x="412.3774414062" y="0" type="line"/>
			<point x="285.3391113281" y="0" type="line"/>
			<point x="253.7707519531" y="728.3889160156" type="line"/>
			<point x="214.0749511719" y="1353.0048828125" type="line"/>
		</contour>
	</outline>
	<anchor name="bottom" x="691" y="0"/>
	<anchor name="top" x="981" y="1500"/>
</glyph>
<glyph name="X" format="2">
	<unicode hex="0058"/>
	<advance width="1130"/>
	<outline>
		<contour>
			<point x="-231.5427246094" y="0" type="line"/>
			<point x="-222.6547851562" y="99.9951171875" type="line"/>
			<point x="-27.4337158203" y="133.9951171875" type="line"/>
			<point x="513" y="764" type="line"/>
			<point x="251.2145996094" y="1353.0048828125" type="line"/>
			<point x="70.6457519531" y="1387.0048828125" type="line"/>
			<point x="82.6837158203" y="1500" type="line"/>
			<point x="639.1245727539" y="1500" type="line"/>
			<point x="627.0866088867" y="1387.0048828125" type="line"/>
			<point x="439.49609375" y="1353.0048828125" type="line"/>
			<point x="581" y="1027" type="line"/>
			<point x="627" y="913" type="line"/>
			<point x="638" y="913" type="line"/>
			<point x="724" y="1027" type="line"/>
			<point x="911.2607421875" y="1353.0048828125" type="line"/>
			<point x="744.4091186523" y="1387.0048828125" type="line"/>
			<point x="756.4470825195" y="1500" type="line"/>
			<point x="1300.0523681641" y="1500" type="line"/>
			<point x="1288.0144042969" y="1387.0048828125" type="line"/>
			<point x="1085.5322265625" y="1353.0048828125" type="line"/>
			<point x="670" y="808" type="line"/>
			<point x="907.6834716797" y="133.9951171875" type="line"/>
			<point x="1090.8612060547" y="99.9951171875" type="line"/>
			<point x="1081.9732666016" y="0" type="line"/>
			<point x="531.3051757812" y="0" type="line"/>
			<point x="540.1931152344" y="99.9951171875" type="line"/>
			<point x="724.1097412109" y="133.9951171875" type="line"/>
			<point x="603" y="544" type="line"/>
			<point x="556" y="658" type="line"/>
			<point x="546" y="658" type="line"/>
			<point x="461" y="544" type="line"/>
			<point x="146.8377685547" y="133.9951171875" type="line"/>
			<point x="327.6893920898" y="99.9951171875" type="line"/>
			<point x="317.9164428711" y="0" type="line"/>
		</contour>
	</outline>
	<anchor name="bottom" x="453" y="0"/>
	<anchor name="top" x="723" y="1500"/>
	<anchor name="cy_descender" x="1125" y="100"/>
	<anchor name="center" x="591" y="791"/>
</glyph>
<glyph name="Y" format="2">
	<unicode hex="0059"/>
	<advance width="1077"/>
	<outline>
		<contour>
			<point x="58.7532958984" y="0" type="line"/>
			<point x="72.6412353516" y="99.9951171875" type="line"/>
			<point x="311.8634033203" y="129.9951171875" type="line"/>
			<point x="412.9797363281" y="642.8312988281" type="line"/>
			<point x="312.1208496094" y="976.7100830078" type="line"/>
			<point x="184.9353027344" y="1353.0048828125" type="line"/>
			<point x="17.649230957" y="1387.0048828125" type="line"/>
			<point x="29.6871948242" y="1500" type="line"/>
			<point x="554.6699829102" y="1500" type="line"/>
			<point x="542.632019043" y="1387.0048828125" type="line"/>
			<point x="363.0415039062" y="1353.0048828125" type="line"/>
			<point x="438.7189941406" y="1083.8555908203" type="line"/>
			<point x="609" y="783" type="line"/>
			<point x="619" y="783" type="line"/>
			<point x="824" y="1077" type="line"/>
			<point x="925.7309570312" y="1353.0048828125" type="line"/>
			<point x="751.0093383789" y="1387.0048828125" type="line"/>
			<point x="763.0473022461" y="1500" type="line"/>
			<point x="1269.6094360352" y="1500" type="line"/>
			<point x="1257.571472168" y="1387.0048828125" type="line"/>
			<point x="1071.2854003906" y="1353.0048828125" type="line"/>
			<point x="903" y="1013" type="line"/>
			<point x="567.5493164062" y="632.2375488281" type="line"/>
			<point x="471.3570556641" y="129.9951171875" type="line"/>
			<point x="699.253112793" y="99.9951171875" type="line"/>
			<point x="691.3651733398" y="0" type="line"/>
		</contour>
	</outline>
	<anchor name="bottom" x="443" y="0"/>
	<anchor name="top" x="731" y="1500"/>
	<anchor name="tonos" x="-13" y="1500"/>
	<anchor name="center" x="553" y="579"/>
</glyph>
<glyph name="Z" format="2">
	<unicode hex="005A"/>
	<advance width="987"/>
	<outline>
		<contour>
			<point x="-123.7314453125" y="0" type="line"/>
			<point x="-134.9365234375" y="103.9514160156" type="line"/>
			<point x="404.0861816406" y="805.2390136719" type="line"/>
			<point x="815.8803710938" y="1358.796875" type="line"/>
			<point x="810.8803710938" y="1373.796875" type="line"/>
			<point x="298.103515625" y="1373.796875" type="line"/>
			<point x="197.1302490234" y="1096.0047607422" type="line"/>
			<point x="101.8665771484" y="1096.0047607422" type="line"/>
			<point x="180.5798339844" y="1500" type="line"/>
			<point x="1056.6005859375" y="1500" type="line"/>
			<point x="1040.2961425781" y="1386.4523925781" type="line"/>
			<point x="517.4382324219" y="720.3979492188" type="line"/>
			<point x="93.2075195312" y="144.2094726562" type="line"/>
			<point x="98.2075195312" y="125.2094726562" type="line"/>
			<point x="646.4467773438" y="125.2094726562" type="line"/>
			<point x="814.4058837891" y="412.4798583984" type="line"/>
			<point x="920.6695556641" y="412.4798583984" type="line"/>
			<point x="762.0698242188" y="0" type="line"/>
		</contour>
	</outline>
	<anchor name="bottom" x="383" y="0"/>
	<anchor name="top" x="643" y="1500"/>
	<anchor name="_liga" x="0" y="0"/>
</glyph>
<glyph name="a" format="2">
	<unicode hex="0061"/>
	<advance width="1109"/>
	<outline>
		<contour>
			<point x="-4.775390625" y="266" type="qcurve" smooth="yes"/>
			<point x="-24.6188354492" y="556.1437988281"/>
			<point x="404.137512207" y="984.1445922852"/>
			<point x="606.463684082" y="984.1445922852" type="qcurve" smooth="yes"/>
			<point x="650.2766723633" y="984.1445922852"/>
			<point x="721.0650024414" y="964.1445922852"/>
			<point x="747.3047485352" y="948.1445922852" type="qcurve"/>
			<point x="782.2948608398" y="1003.1445922852" type="line"/>
			<point x="838.430480957" y="1003.1445922852" type="line"/>
			<point x="901.0690307617" y="802.1445922852" type="line"/>
			<point x="804.2963256836" y="393" type="line"/>
			<point x="771.2121582031" y="229" type="line"/>
			<point x="770.2618408203" y="168"/>
			<point x="794.3241577148" y="86"/>
			<point x="829.8475952148" y="20" type="qcurve"/>
			<point x="657.8122558594" y="-9" type="line"/>
			<point x="626.802734375" y="20.6447143555"/>
			<point x="613.8861694336" y="124.7030639648"/>
			<point x="606.3408203125" y="188.1328735352" type="qcurve"/>
			<point x="494.1821289062" y="107.9047241211"/>
			<point x="316.866394043" y="-10"/>
			<point x="248.1766967773" y="-10" type="qcurve" smooth="yes"/>
			<point x="116.5938720703" y="-10"/>
			<point x="2.5140380859" y="149"/>
		</contour>
		<contour>
			<point x="162.2720947266" y="269.0035400391" type="qcurve" smooth="yes"/>
			<point x="166.3217773438" y="203.6229248047"/>
			<point x="226.8245239258" y="125.0848999023"/>
			<point x="293.6431274414" y="125.0848999023" type="qcurve" smooth="yes"/>
			<point x="410.5200805664" y="125.0848999023"/>
			<point x="649.5317993164" y="369"/>
			<point x="681.0292358398" y="526" type="qcurve" smooth="yes"/>
			<point x="746.2289428711" y="817.0596923828" type="line"/>
			<point x="738.7742919922" y="850.0596923828"/>
			<point x="649.5327148438" y="877.9334106445"/>
			<point x="596.2184448242" y="877.9334106445" type="qcurve" smooth="yes"/>
			<point x="392.663269043" y="877.9334106445"/>
			<point x="149.3131103516" y="475.1437988281"/>
		</contour>
	</outline>
	<anchor name="bottom" x="345" y="0"/>
	<anchor name="ogonek" x="732" y="0"/>
	<anchor name="top" x="608" y="1000"/>
</glyph>
<glyph name="c" format="2">
	<unicode hex="0063"/>
	<advance width="971"/>
	<outline>
		<contour>
			<point x="3.9201660156" y="496.0007324219" type="qcurve" smooth="yes"/>
			<point x="42.6345214844" y="734.1439208984"/>
			<point x="431.4876708984" y="1026.0014648438"/>
			<point x="617.8271484375" y="1026.0014648438" type="qcurve" smooth="yes"/>
			<point x="704.9603271484" y="1026.0014648438"/>
			<point x="850.0468139648" y="923.6986694336"/>
			<point x="850.0468139648" y="847.0308227539" type="qcurve" smooth="yes"/>
			<point x="850.0468139648" y="764.0775146484"/>
			<point x="765.6167602539" y="630.8854370117"/>
			<point x="704.4647827148" y="610.8854370117" type="qcurve"/>
			<point x="684.1180419922" y="636.8854370117" type="line"/>
			<point x="684.689453125" y="852.535949707" type="line" smooth="yes"/>
			<point x="684.689453125" y="878.535949707"/>
			<point x="642.8980712891" y="923.535949707"/>
			<point x="557.3639526367" y="923.535949707" type="qcurve" smooth="yes"/>
			<point x="401.315612793" y="923.535949707"/>
			<point x="192.6873779297" y="686.9669189453"/>
			<point x="165.7458496094" y="490.2864379883" type="qcurve" smooth="yes"/>
			<point x="138.3018798828" y="298.526550293"/>
			<point x="232.8888549805" y="82.8790283203"/>
			<point x="370.2532958984" y="82.8790283203" type="qcurve" smooth="yes"/>
			<point x="521.7014160156" y="82.8790283203"/>
			<point x="712.8082275391" y="211.6073608398"/>
			<point x="766.3008422852" y="309.0191040039" type="qcurve"/>
			<point x="802.5313720703" y="262" type="line"/>
			<point x="802.5313720703" y="212" type="line"/>
			<point x="746.1519165039" y="112.475769043"/>
			<point x="499.4784545898" y="-31"/>
			<point x="329.5253295898" y="-31" type="qcurve" smooth="yes"/>
			<point x="129.8812866211" y="-31"/>
			<point x="-34.0798950195" y="262.0004272461"/>
		</contour>
	</outline>
	<anchor name="bottom" x="343" y="0"/>
	<anchor name="top" x="600" y="1000"/>
</glyph>
<glyph name="d" format="2">
	<unicode hex="0064"/>
	<advance width="1133"/>
	<outline>
		<contour>
			<point x="-4.775390625" y="266.2860717773" type="qcurve" smooth="yes"/>
			<point x="-4.775390625" y="549.4294433594"/>
			<point x="424.5902709961" y="982.6922607422"/>
			<point x="671.0463256836" y="996.0016479492" type="qcurve" smooth="yes"/>
			<point x="758.3109130859" y="996.0016479492" type="line"/>
			<point x="838.1251220703" y="1412.5817871094" type="line"/>
			<point x="698.9462280273" y="1513.5817871094" type="line"/>
			<point x="729.5361328125" y="1597.5812988281" type="line"/>
			<point x="923.3795166016" y="1642.5812988281" type="line"/>
			<point x="1021.3795166016" y="1533.5812988281" type="line"/>
			<point x="812.4396972656" y="469" type="line"/>
			<point x="762.9296264648" y="134.9995117188" type="line"/>
			<point x="906.0296020508" y="124.9995117188" type="line"/>
			<point x="908.4396972656" y="44" type="line"/>
			<point x="629.9519042969" y="-8" type="line"/>
			<point x="582.9519042969" y="73" type="line"/>
			<point x="595.9519042969" y="192" type="line"/>
			<point x="555.1344604492" y="99.1428222656"/>
			<point x="286.1727294922" y="-15"/>
			<point x="215.1789550781" y="-15" type="qcurve" smooth="yes"/>
			<point x="100.5196533203" y="-15"/>
			<point x="-4.775390625" y="136.4287719727"/>
		</contour>
		<contour>
			<point x="161.940612793" y="285.0335083008" type="qcurve" smooth="yes"/>
			<point x="161.940612793" y="209.0983886719"/>
			<point x="220.6575317383" y="127.6402587891"/>
			<point x="276.8959350586" y="127.6402587891" type="qcurve" smooth="yes"/>
			<point x="396.6134643555" y="127.6402587891"/>
			<point x="629.7002563477" y="328.479309082"/>
			<point x="670.6759033203" y="511.3979492188" type="qcurve" smooth="yes"/>
			<point x="744.72265625" y="818.7108764648" type="line"/>
			<point x="736.8630371094" y="851.7108764648"/>
			<point x="673.2691040039" y="888.7108764648"/>
			<point x="622.3846435547" y="888.7108764648" type="qcurve" smooth="yes"/>
			<point x="430.5588378906" y="888.7108764648"/>
			<point x="161.940612793" y="494.9519042969"/>
		</contour>
	</outline>
	<anchor name="bottom" x="604" y="0"/>
	<anchor name="center" x="876" y="1202"/>
	<anchor name="top" x="704" y="1534"/>
	<anchor name="topright" x="1076" y="1000"/>
	<anchor name="liga" x="1067" y="0"/>
</glyph>
<glyph name="f" format="2">
	<unicode hex="0066"/>
	<advance width="621"/>
	<outline>
		<contour>
			<point x="-425.0966796875" y="-427.7021484375" type="line" smooth="yes"/>
			<point x="-416.3233032227" y="-326.6976318359" type="line"/>
			<point x="-257.1182250977" y="-324.2630615234" type="line" smooth="yes"/>
			<point x="-121.3703613281" y="-321.8284912109"/>
			<point x="9.8865966797" y="-170.0015258789"/>
			<point x="69.7643432617" y="172.514831543" type="qcurve" smooth="yes"/>
			<point x="188.4828491211" y="857.0014648438" type="line"/>
			<point x="202.2211303711" y="894.0014648438" type="line"/>
			<point x="276.1481323242" y="1265.7584228516" type="line" smooth="yes"/>
			<point x="314.8031616211" y="1462.1013793945"/>
			<point x="451.1615600586" y="1618.7584228516"/>
			<point x="564.6976318359" y="1618.7584228516" type="qcurve" smooth="yes"/>
			<point x="652.155090332" y="1618.7584228516"/>
			<point x="765.3167724609" y="1551.9954223633"/>
			<point x="765.3167724609" y="1491.3431396484" type="qcurve" smooth="yes"/>
			<point x="765.3167724609" y="1444.6908569336"/>
			<point x="724.8719482422" y="1382.6735229492"/>
			<point x="748.7274169922" y="1382.6735229492" type="qcurve" smooth="yes"/>
			<point x="723.7274169922" y="1382.6735229492"/>
			<point x="703.7274169922" y="1396.6735229492"/>
			<point x="703.7274169922" y="1425.6735229492" type="qcurve" smooth="yes"/>
			<point x="703.7274169922" y="1458.6735229492"/>
			<point x="646.4754638672" y="1514.7219848633"/>
			<point x="591.1766357422" y="1514.7219848633" type="qcurve" smooth="yes"/>
			<point x="514.0555419922" y="1514.7219848633"/>
			<point x="417.3665161133" y="1421.5409545898"/>
			<point x="408.2850341797" y="1341.6735229492" type="qcurve" smooth="yes"/>
			<point x="337.3179321289" y="890.0014648438" type="line"/>
			<point x="336.3179321289" y="865.0014648438" type="line"/>
			<point x="214.7462158203" y="214" type="line" smooth="yes"/>
			<point x="133.4846801758" y="-218.1653442383"/>
			<point x="-38.8864135742" y="-470.13671875"/>
			<point x="-160.98046875" y="-469.7021484375" type="qcurve"/>
		</contour>
		<contour>
			<point x="-15.4293823242" y="831.8369750977" type="line"/>
			<point x="-0.7788696289" y="892.0014648438" type="line"/>
			<point x="206.2211303711" y="923.0014648438" type="line"/>
			<point x="580.7798461914" y="923.0014648438" type="line"/>
			<point x="569.7954101562" y="825.8369750977" type="line"/>
			<point x="283.9199829102" y="832.8369750977" type="line"/>
			<point x="215.8231811523" y="814.8369750977" type="line"/>
		</contour>
	</outline>
	<anchor name="bottom" x="217" y="0"/>
	<anchor name="top" x="554" y="1536"/>
</glyph>
<glyph name="h" format="2">
	<unicode hex="0068"/>
	<advance width="1164"/>
	<outline>
		<contour>
			<point x="44.1722412109" y="-23" type="line"/>
			<point x="2.1722412109" y="56" type="line"/>
			<point x="105.1722412109" y="527" type="line"/>
			<point x="267.6580810547" y="1421.9936523438" type="line"/>
			<point x="149.2280883789" y="1517.9936523438" type="line"/>
			<point x="179.8179931641" y="1601.9931640625" type="line"/>
			<point x="334.7962646484" y="1641.9931640625" type="line"/>
			<point x="433.6654052734" y="1532.9931640625" type="line"/>
			<point x="251.1505126953" y="588" type="line"/>
			<point x="166.1505126953" y="87" type="line"/>
			<point x="197.1505126953" y="0" type="line"/>
		</contour>
		<contour>
			<point x="670.3760986328" y="-14" type="line"/>
			<point x="617.3760986328" y="116" type="line"/>
			<point x="738.549621582" y="712.9943847656" type="line" smooth="yes"/>
			<point x="755.1845703125" y="795.2642822266"/>
			<point x="695.2556762695" y="873.9943847656"/>
			<point x="618.0505981445" y="873.9943847656" type="qcurve" smooth="yes"/>
			<point x="525.8815307617" y="873.9943847656"/>
			<point x="312.9685668945" y="748.3295898438"/>
			<point x="230.6544189453" y="676.0536499023" type="qcurve"/>
			<point x="186.9194946289" y="722.3659057617" type="line"/>
			<point x="279.9724731445" y="843.1278076172"/>
			<point x="576.9127197266" y="1021.0014648438"/>
			<point x="637.7697753906" y="1021.0014648438" type="qcurve" smooth="yes"/>
			<point x="759.7521972656" y="1021.0014648438"/>
			<point x="908.5376586914" y="792.0214233398"/>
			<point x="876.6403808594" y="640.0014648438" type="qcurve" smooth="yes"/>
			<point x="773.5642700195" y="149.9995117188" type="line"/>
			<point x="928.9442749023" y="133.9995117188" type="line"/>
			<point x="927.3543701172" y="46" type="line"/>
		</contour>
	</outline>
	<anchor name="bottom" x="420" y="0"/>
	<anchor name="center" x="347" y="1202"/>
	<anchor name="top" x="424" y="1534"/>
</glyph>
<glyph name="k" format="2">
	<unicode hex="006B"/>
	<advance width="882"/>
	<outline>
		<contour>
			<point x="390.0587768555" y="460.4522705078" type="line"/>
			<point x="157.2612304688" y="210.309753418" type="line"/>
			<point x="102.6260986328" y="257.4506835938" type="line"/>
			<point x="703.8894042969" y="820.6929321289" type="line"/>
			<point x="699.8455200195" y="814.0989379883"/>
			<point x="612.1159667969" y="882.4251708984"/>
			<point x="546.9383544922" y="882.4251708984" type="qcurve" smooth="yes"/>
			<point x="480.8109130859" y="882.4251708984"/>
			<point x="321.9250488281" y="736.9612426758"/>
			<point x="268.2291259766" y="672.6622314453" type="qcurve"/>
			<point x="266.657409668" y="664.6607666016" type="line"/>
			<point x="172.1505126953" y="108" type="line"/>
			<point x="202.1505126953" y="0" type="line"/>
			<point x="44.1722412109" y="-23" type="line"/>
			<point x="2.1722412109" y="56" type="line"/>
			<point x="105.1722412109" y="527" type="line"/>
			<point x="267.2169799805" y="1422.5817871094" type="line"/>
			<point x="149.3751220703" y="1518.5817871094" type="line"/>
			<point x="179.9650268555" y="1602.5812988281" type="line"/>
			<point x="334.9432983398" y="1642.5812988281" type="line"/>
			<point x="432.9432983398" y="1533.5812988281" type="line"/>
			<point x="289.2000732422" y="778.0489501953" type="line"/>
			<point x="306.5328369141" y="841.1525878906"/>
			<point x="431.0802001953" y="1002.0014648438"/>
			<point x="502.9920654297" y="1002.0014648438" type="qcurve" smooth="yes"/>
			<point x="552.4039306641" y="1002.0014648438"/>
			<point x="609.8360595703" y="881.3673095703"/>
			<point x="622.8636474609" y="838.0624389648" type="qcurve" smooth="yes"/>
			<point x="635.1568603516" y="746.0764770508" type="line"/>
			<point x="623.4267578125" y="721.5211181641" type="line"/>
			<point x="400.3588256836" y="460.7512207031" type="line"/>
		</contour>
		<contour>
			<point x="385.2846679688" y="532.0012817383" type="line"/>
			<point x="658.9000854492" y="142.651550293" type="line"/>
			<point x="765.6454467773" y="133.651550293" type="line"/>
			<point x="760.6454467773" y="43.6520385742" type="line"/>
			<point x="617.9655761719" y="-17.4970703125" type="line" smooth="yes"/>
			<point x="606.8911743164" y="-21.3832397461"/>
			<point x="588.0172119141" y="-4.4500732422"/>
			<point x="516.6914672852" y="105.7142944336" type="qcurve" smooth="yes"/>
			<point x="342.3658447266" y="411.2962036133" type="line"/>
		</contour>
	</outline>
	<anchor name="bottom" x="448" y="0"/>
	<anchor name="top" x="578" y="1534"/>
</glyph>
<glyph name="l" format="2">
	<unicode hex="006C"/>
	<advance width="593"/>
	<outline>
		<contour>
			<point x="61.7376708984" y="-18" type="line"/>
			<point x="10.7376708984" y="118" type="line"/>
			<point x="123.7376708984" y="606" type="line"/>
			<point x="275.2664794922" y="1422.5817871094" type="line"/>
			<point x="156.9405517578" y="1518.5817871094" type="line"/>
			<point x="187.530456543" y="1602.5812988281" type="line"/>
			<point x="359.0598144531" y="1642.5812988281" type="line"/>
			<point x="457.0598144531" y="1533.5812988281" type="line"/>
			<point x="277.2670288086" y="588" type="line"/>
			<point x="195.2369384766" y="150.9995117188" type="line"/>
			<point x="407.8569335938" y="151.9995117188" type="line"/>
			<point x="406.2670288086" y="63" type="line"/>
		</contour>
	</outline>
	<anchor name="bottom" x="201" y="0"/>
	<anchor name="center" x="236" y="770"/>
	<anchor name="top" x="436" y="1534"/>
	<anchor name="topright" x="492" y="1000"/>
	<anchor name="centerright" x="707" y="742"/>
	<anchor name="liga" x="567" y="0"/>
</glyph>
<glyph name="n" format="2">
	<unicode hex="006E"/>
	<advance width="1193"/>
	<outline>
		<contour>
			<point x="67.9008178711" y="-31.4543457031" type="line"/>
			<point x="26.8948364258" y="48.2568359375" type="line"/>
			<point x="123.9975585938" y="495" type="line"/>
			<point x="186.2058105469" y="813.4937744141" type="line"/>
			<point x="44.2058105469" y="809.4937744141" type="line"/>
			<point x="44.5100097656" y="911.4932861328" type="line"/>
			<point x="260.033203125" y="995.6557617188" type="line"/>
			<point x="310.4630737305" y="995.6557617188" type="line"/>
			<point x="346.2402954102" y="733.6900634766" type="line"/>
			<point x="319.8913574219" y="636" type="line"/>
			<point x="205.6953125" y="88.2568359375" type="line"/>
			<point x="244.1502075195" y="-0.5728759766" type="line"/>
		</contour>
		<contour>
			<point x="715.6232299805" y="-14" type="line"/>
			<point x="665.1574707031" y="92.3555908203" type="line"/>
			<point x="784.1153564453" y="699.3663330078" type="line" smooth="yes"/>
			<point x="800.408203125" y="780.2152709961"/>
			<point x="760.546875" y="886.0059814453"/>
			<point x="669.7003173828" y="886.0059814453" type="qcurve" smooth="yes"/>
			<point x="578.2384033203" y="886.0059814453"/>
			<point x="323.6840820312" y="672.6125488281"/>
			<point x="271.6566162109" y="613.4921264648" type="qcurve"/>
			<point x="222.861328125" y="665.6053466797" type="line"/>
			<point x="302.9964599609" y="792.6724243164"/>
			<point x="619.2887573242" y="1017.5340576172"/>
			<point x="738.0559082031" y="1017.5340576172" type="qcurve" smooth="yes"/>
			<point x="836.7178955078" y="1017.5340576172"/>
			<point x="981.1374511719" y="899.8447265625"/>
			<point x="956.169921875" y="778.4005126953" type="qcurve" smooth="yes"/>
			<point x="829.6071166992" y="149.9995117188" type="line"/>
			<point x="984.6071166992" y="133.9995117188" type="line"/>
			<point x="983.0172119141" y="46" type="line"/>
		</contour>
	</outline>
	<anchor name="bottom" x="522" y="0"/>
	<anchor name="top" x="602" y="1000"/>
	<anchor name="liga" x="1173" y="0"/>
</glyph>
<glyph name="o" format="2">
	<unicode hex="006F"/>
	<advance width="1139"/>
	<outline>
		<contour>
			<point x="13.35353597" y="541.8092651367" type="qcurve" smooth="yes"/>
			<point x="58.7107137044" y="734.3652954102"/>
			<point x="341.5975952148" y="1013.6604003906"/>
			<point x="554.5077107747" y="1013.0176391602" type="qcurve" smooth="yes"/>
			<point x="751.3223266602" y="1012.018371582"/>
			<point x="970.3335571289" y="714.4116210938"/>
			<point x="911.1627197266" y="477.9313354492" type="qcurve" smooth="yes"/>
			<point x="866.5936889648" y="288.5733032227"/>
			<point x="584.7123413086" y="-20.7981567383"/>
			<point x="350.8777669271" y="-17.8509521484" type="qcurve" smooth="yes"/>
			<point x="178.0104370117" y="-20.966796875"/>
			<point x="-45.241007487" y="299.0456542969"/>
		</contour>
		<contour>
			<point x="164.4285481771" y="524.7133178711" type="qcurve" smooth="yes"/>
			<point x="131.054955835" y="345.484837156"/>
			<point x="231.5205891927" y="90.3613891602"/>
			<point x="364.3973592122" y="84.2010498047" type="qcurve" smooth="yes"/>
			<point x="505.5836127859" y="82.0296048667"/>
			<point x="706.1619466146" y="289.9840698242"/>
			<point x="738.2202351888" y="488.5721435547" type="qcurve" smooth="yes"/>
			<point x="767.6319783528" y="666.3955688477"/>
			<point x="649.1807231982" y="888.3042147097"/>
			<point x="516.7893269857" y="895.4321289062" type="qcurve" smooth="yes"/>
			<point x="374.0769856771" y="902.8838500977"/>
			<point x="194.4834636903" y="702.7583987412"/>
		</contour>
	</outline>
	<anchor name="bottom" x="358" y="0"/>
	<anchor name="center" x="461" y="500"/>
	<anchor name="ogonek" x="514" y="0"/>
	<anchor name="top" x="584" y="1000"/>
	<anchor name="topright" x="663" y="1000"/>
	<anchor name="GRKtop" x="584" y="1000"/>
	<anchor name="yu_dash" x="83" y="498"/>
</glyph>
<glyph name="p" format="2">
	<unicode hex="0070"/>
	<advance width="1056"/>
	<outline>
		<contour>
			<point x="-87.0244140625" y="-391.0864257812" type="line"/>
			<point x="129.8666992188" y="637" type="line"/>
			<point x="159.7241210938" y="786.858581543" type="line"/>
			<point x="117.7241210938" y="929.858581543" type="line"/>
			<point x="112.3972167969" y="1039.858581543" type="line"/>
			<point x="231.3972167969" y="1039.858581543" type="line"/>
			<point x="267.2319946289" y="802.9184570312" type="line"/>
			<point x="337.7181396484" y="864.9998168945"/>
			<point x="623.0625" y="1019.858581543"/>
			<point x="714.4124755859" y="1019.858581543" type="qcurve" smooth="yes"/>
			<point x="835.2752075195" y="1019.858581543"/>
			<point x="901.8908081055" y="871.905456543"/>
			<point x="909.9901733398" y="734.8579711914" type="qcurve" smooth="yes"/>
			<point x="930.6435546875" y="393.1433105469"/>
			<point x="585.1354980469" y="30"/>
			<point x="314.4080810547" y="30" type="qcurve" smooth="yes"/>
			<point x="253.9285888672" y="30"/>
			<point x="170.5894775391" y="41"/>
			<point x="145.5397949219" y="51" type="qcurve"/>
			<point x="66.7977294922" y="-346.0869140625" type="line"/>
			<point x="230.6077270508" y="-386.0869140625" type="line"/>
			<point x="207.6486816406" y="-452.0864257812" type="line"/>
			<point x="29.9755859375" y="-486.0864257812" type="line"/>
		</contour>
		<contour>
			<point x="174.8737182617" y="217.6696166992" type="line"/>
			<point x="164.318359375" y="153.7180786133"/>
			<point x="230.2114868164" y="112.7821044922"/>
			<point x="284.2201538086" y="112.7821044922" type="qcurve" smooth="yes"/>
			<point x="496.4616088867" y="112.7821044922"/>
			<point x="774.1377563477" y="464.3973999023"/>
			<point x="759.4050292969" y="709.1087646484" type="qcurve" smooth="yes"/>
			<point x="757.5057373047" y="776.6795043945"/>
			<point x="684.278503418" y="837.2979125977"/>
			<point x="606.3854370117" y="837.2979125977" type="qcurve" smooth="yes"/>
			<point x="524.6575317383" y="837.2979125977"/>
			<point x="332.6215209961" y="736.0453491211"/>
			<point x="256.9681396484" y="668.7287597656" type="qcurve"/>
			<point x="240.4446411133" y="565.4290771484" type="line"/>
		</contour>
	</outline>
	<anchor name="bottom" x="599" y="0"/>
	<anchor name="top" x="599" y="1000"/>
</glyph>
<glyph name="q" format="2">
	<unicode hex="0071"/>
	<advance width="1038"/>
	<outline>
		<contour>
			<point x="6.0280151367" y="260.2858886719" type="qcurve" smooth="yes"/>
			<point x="-16.2452392578" y="559.2865600586"/>
			<point x="317.9071655273" y="982.7160644531"/>
			<point x="611.4364013672" y="982.7160644531" type="qcurve" smooth="yes"/>
			<point x="655.6761474609" y="982.7160644531"/>
			<point x="759.3705444336" y="962.7160644531"/>
			<point x="786.0152587891" y="946.7160644531" type="qcurve"/>
			<point x="652.0549316406" y="1001.7160644531" type="line"/>
			<point x="791.0549316406" y="1001.7160644531" type="line"/>
			<point x="857.0549316406" y="800.7160644531" type="line"/>
			<point x="783.4831542969" y="506" type="line"/>
			<point x="584.9236450195" y="-337.0869140625" type="line"/>
			<point x="731.4436645508" y="-377.0869140625" type="line"/>
			<point x="701.4846191406" y="-452.0864257812" type="line"/>
			<point x="564.7182006836" y="-486.0864257812" type="line"/>
			<point x="473.7182006836" y="-390.0864257812" type="line"/>
			<point x="604.7167358398" y="140" type="line"/>
			<point x="593.7167358398" y="143" type="line"/>
			<point x="489.8242797852" y="55.6063232422"/>
			<point x="310.3564453125" y="-10"/>
			<point x="278.4486694336" y="-10" type="qcurve" smooth="yes"/>
			<point x="157.1117553711" y="-10"/>
			<point x="17.3671264648" y="165.0100097656"/>
		</contour>
		<contour>
			<point x="129.4539794922" y="295.7789916992" type="qcurve" smooth="yes"/>
			<point x="134.7185668945" y="221.3679199219"/>
			<point x="209.1614990234" y="136.7665405273"/>
			<point x="281.364440918" y="136.7665405273" type="qcurve" smooth="yes"/>
			<point x="400.2662353516" y="136.7665405273"/>
			<point x="643.7186889648" y="338.049987793"/>
			<point x="679.9866333008" y="522.3494873047" type="qcurve" smooth="yes"/>
			<point x="752.0811157227" y="807.9650878906" type="line"/>
			<point x="745.8413696289" y="842.1799926758"/>
			<point x="669.0426635742" y="877.9650878906"/>
			<point x="610.8687744141" y="877.9650878906" type="qcurve" smooth="yes"/>
			<point x="397.7860107422" y="877.9650878906"/>
			<point x="114.0651855469" y="500.3493041992"/>
		</contour>
	</outline>
	<anchor name="bottom" x="594" y="0"/>
	<anchor name="top" x="594" y="1000"/>
</glyph>
<glyph name="s" format="2">
	<unicode hex="0073"/>
	<advance width="853"/>
	<outline>
		<contour>
			<point x="-25.9141845703" y="210" type="qcurve" smooth="yes"/>
			<point x="-26.9141845703" y="295"/>
			<point x="56.4196777344" y="402"/>
			<point x="120.8222045898" y="402" type="qcurve" smooth="yes"/>
			<point x="162.8222045898" y="402" type="line"/>
			<point x="165.8222045898" y="190.1938476562" type="line" smooth="yes"/>
			<point x="166.8222045898" y="139.5588989258"/>
			<point x="184.7716064453" y="95.428527832"/>
			<point x="301.4240112305" y="95.428527832" type="qcurve" smooth="yes"/>
			<point x="378.2562255859" y="95.428527832"/>
			<point x="527.3467407227" y="182.3148193359"/>
			<point x="528.3467407227" y="259.0877075195" type="qcurve" smooth="yes"/>
			<point x="531.3467407227" y="341.041809082"/>
			<point x="436.4612426758" y="392.1560058594"/>
			<point x="323.6927490234" y="470.8662719727" type="qcurve" smooth="yes"/>
			<point x="213.5390014648" y="540.6196289062"/>
			<point x="102.3555297852" y="678.3870849609"/>
			<point x="108.1436767578" y="799.1014404297" type="qcurve" smooth="yes"/>
			<point x="113.9318237305" y="861.5726318359"/>
			<point x="308.6987304688" y="1021.7338867188"/>
			<point x="481.2420654297" y="1021.7338867188" type="qcurve" smooth="yes"/>
			<point x="553.3114624023" y="1021.7338867188"/>
			<point x="720.0601806641" y="897.0014648438"/>
			<point x="721.0601806641" y="806.0014648438" type="qcurve" smooth="yes"/>
			<point x="722.0601806641" y="737.7157592773"/>
			<point x="644.0690307617" y="651.0014648438"/>
			<point x="626.1800537109" y="651.0014648438" type="qcurve" smooth="yes"/>
			<point x="583.1800537109" y="651.0014648438" type="line"/>
			<point x="581.1800537109" y="794.2540283203" type="line" smooth="yes"/>
			<point x="581.1800537109" y="812.7137451172"/>
			<point x="485.9098510742" y="904.8428344727"/>
			<point x="397.4013671875" y="904.8428344727" type="qcurve" smooth="yes"/>
			<point x="306.1737670898" y="904.8428344727"/>
			<point x="248.4284667969" y="839.5400390625"/>
			<point x="248.4284667969" y="783.2755737305" type="qcurve" smooth="yes"/>
			<point x="249.4284667969" y="726.7616577148"/>
			<point x="340.7917480469" y="661.1062011719"/>
			<point x="430.658996582" y="604.6193847656" type="qcurve" smooth="yes"/>
			<point x="538.8292236328" y="534.7467651367"/>
			<point x="677.0640869141" y="400.3179321289"/>
			<point x="674.0640869141" y="284.0321044922" type="qcurve"/>
			<point x="671.0749511719" y="147.7153320312"/>
			<point x="407.9633789062" y="-26.732421875"/>
			<point x="258.6480102539" y="-26.732421875" type="qcurve" smooth="yes"/>
			<point x="144.796875" y="-26.732421875"/>
			<point x="-23.9141845703" y="101"/>
		</contour>
	</outline>
	<anchor name="bottom" x="282" y="0"/>
	<anchor name="top" x="446" y="1000"/>
</glyph>
<glyph name="t" format="2">
	<unicode hex="0074"/>
	<advance width="647"/>
	<outline>
		<contour>
			<point x="118.276184082" y="-15" type="line"/>
			<point x="44.276184082" y="117" type="line"/>
			<point x="141.276184082" y="512" type="line"/>
			<point x="196.8943481445" y="822.3127441406" type="line"/>
			<point x="35.8943481445" y="834.3127441406" type="line"/>
			<point x="42.5621948242" y="868.0014648438" type="line"/>
			<point x="214.5524291992" y="906.1743164062"/>
			<point x="362.5042114258" y="1190.7772827148"/>
			<point x="306.1253051758" y="1209.0014648438" type="qcurve"/>
			<point x="325.8619995117" y="1209.0014648438" type="line"/>
			<point x="376.8619995117" y="1132.0014648438" type="line"/>
			<point x="280.6130981445" y="524" type="line"/>
			<point x="210.3059082031" y="165.9995117188" type="line"/>
			<point x="377.9954833984" y="158.9995117188" type="line"/>
			<point x="372.6154785156" y="65.2399902344" type="line"/>
		</contour>
		<contour>
			<point x="591.2593994141" y="841.3127441406" type="line"/>
			<point x="627.5621948242" y="932.0014648438" type="line"/>
			<point x="589.8942260742" y="932.0014648438" type="line"/>
			<point x="598.5914306641" y="867.3127441406" type="line"/>
		</contour>
	</outline>
	<anchor name="bottom" x="149" y="0"/>
	<anchor name="center" x="262" y="622"/>
	<anchor name="top" x="322" y="1179"/>
	<anchor name="topright" x="600" y="920"/>
</glyph>
<glyph name="u" format="2">
	<unicode hex="0075"/>
	<advance width="1204"/>
	<outline>
		<contour>
			<point x="731.4765625" y="-25" type="line"/>
			<point x="676.4765625" y="71" type="line"/>
			<point x="697.6025390625" y="335.9755859375" type="line"/>
			<point x="797.333984375" y="872.2871704102" type="line"/>
			<point x="768.333984375" y="985.2871704102" type="line"/>
			<point x="929.1937255859" y="1013.2871704102" type="line"/>
			<point x="969.1937255859" y="904.2871704102" type="line"/>
			<point x="864.3363037109" y="415" type="line"/>
			<point x="832.9662475586" y="134.9995117188" type="line"/>
			<point x="976.9662475586" y="134.9995117188" type="line"/>
			<point x="977.3363037109" y="41" type="line"/>
		</contour>
		<contour>
			<point x="61.7808837891" y="309" type="qcurve" smooth="yes"/>
			<point x="163.4284057617" y="793.2876586914" type="line"/>
			<point x="21.4284057617" y="789.2876586914" type="line"/>
			<point x="21.6383056641" y="891.2871704102" type="line"/>
			<point x="117.1083984375" y="1002.2871704102" type="line"/>
			<point x="275.1083984375" y="1002.2871704102" type="line"/>
			<point x="342.1083984375" y="877.2871704102" type="line"/>
			<point x="239.204284668" y="329.2111816406" type="line" smooth="yes"/>
			<point x="222.8392333984" y="241.2111816406"/>
			<point x="284.8562011719" y="168.8287963867"/>
			<point x="361.5007324219" y="168.8287963867" type="qcurve" smooth="yes"/>
			<point x="451.1354980469" y="168.8287963867"/>
			<point x="649.5261230469" y="299.3229370117"/>
			<point x="720.9558105469" y="338.1227416992" type="qcurve"/>
			<point x="744.3970336914" y="286.5955810547" type="line"/>
			<point x="724.2481689453" y="213.9313964844"/>
			<point x="372.692199707" y="-17"/>
			<point x="272.0060424805" y="-17" type="qcurve" smooth="yes"/>
			<point x="183.6986694336" y="-17"/>
			<point x="30.9927368164" y="164"/>
		</contour>
	</outline>
	<anchor name="bottom" x="404" y="0"/>
	<anchor name="ogonek" x="871" y="20"/>
	<anchor name="top" x="572" y="1000"/>
	<anchor name="topright" x="915" y="1000"/>
	<anchor name="cy_descender" x="1018" y="134"/>
</glyph>
<glyph name="v" format="2">
	<unicode hex="0076"/>
	<advance width="998"/>
	<outline>
		<contour>
			<point x="232.5451660156" y="-5.4661254883" type="line"/>
			<point x="164.5827026367" y="508.9235229492" type="line"/>
			<point x="118.1063842773" y="822.2876586914" type="line"/>
			<point x="-25.1935424805" y="819.2876586914" type="line"/>
			<point x="-24.1435546875" y="913.2871704102" type="line"/>
			<point x="187.9996337891" y="1003.2871704102" type="line"/>
			<point x="267.9205322266" y="1003.2871704102" type="line"/>
			<point x="335.5335083008" y="460.8952636719" type="line"/>
			<point x="357.5101318359" y="265.8916015625" type="line"/>
			<point x="363.0755615234" y="154.2974243164" type="line"/>
			<point x="373.0755615234" y="154.2974243164" type="line"/>
			<point x="458.122253418" y="263.5629272461" type="line"/>
			<point x="635.3177490234" y="481.1498413086"/>
			<point x="696.0777587891" y="618.9888305664"/>
			<point x="696.0777587891" y="685.8851318359" type="qcurve" smooth="yes"/>
			<point x="696.0777587891" y="777.9532470703"/>
			<point x="593.1618652344" y="879.5094604492"/>
			<point x="593.1618652344" y="930.2294921875" type="qcurve" smooth="yes"/>
			<point x="593.1618652344" y="963.4655151367"/>
			<point x="660.9661865234" y="1035.5099487305"/>
			<point x="714.9657592773" y="1035.5099487305" type="qcurve" smooth="yes"/>
			<point x="752.0721435547" y="1035.5099487305"/>
			<point x="846.2006225586" y="944.3228149414"/>
			<point x="846.2006225586" y="805.2532958984" type="qcurve" smooth="yes"/>
			<point x="846.2006225586" y="687.4083862305"/>
			<point x="583.4352416992" y="267.8856811523"/>
			<point x="372.0230712891" y="6.5338745117" type="qcurve"/>
		</contour>
	</outline>
	<anchor name="bottom" x="513" y="0"/>
	<anchor name="top" x="513" y="1000"/>
</glyph>
<glyph name="x" format="2">
	<unicode hex="0078"/>
	<advance width="1011"/>
	<outline>
		<contour>
			<point x="101.5010375977" y="-9.7328491211" type="qcurve"/>
			<point x="-103.0529174805" y="49.2671508789" type="line"/>
			<point x="-89.0529174805" y="180.2671508789" type="line"/>
			<point x="102.5010375977" y="178.2671508789" type="line" smooth="yes"/>
			<point x="144.3582763672" y="176.3456420898"/>
			<point x="290.9127197266" y="254.4854125977"/>
			<point x="360.3228759766" y="297.7147827148" type="qcurve" smooth="yes"/>
			<point x="398.8383178711" y="313.9266967773"/>
			<point x="427.533996582" y="325.6744995117"/>
			<point x="446.182800293" y="325.9765625" type="qcurve"/>
			<point x="241.7495727539" y="839.4305419922" type="line"/>
			<point x="74.5498657227" y="820.0905761719" type="line"/>
			<point x="68.5697631836" y="922.4300537109" type="line"/>
			<point x="226.9036254883" y="1016.4300537109" type="line"/>
			<point x="363.9036254883" y="976.4300537109" type="line"/>
			<point x="423.4251098633" y="772.1795043945" type="line"/>
			<point x="439.389831543" y="704.1234741211" type="line"/>
			<point x="449.389831543" y="704.1234741211" type="line"/>
			<point x="514.1901245117" y="766.646484375" type="line" smooth="yes"/>
			<point x="546.428894043" y="797.0982055664"/>
			<point x="610.6142578125" y="863.2894287109"/>
			<point x="645.1436767578" y="887.6530761719" type="qcurve" smooth="yes"/>
			<point x="721.1605224609" y="940.6063232422"/>
			<point x="823.106262207" y="1012.162902832"/>
			<point x="860.2553100586" y="1012.162902832" type="qcurve" smooth="yes"/>
			<point x="888.1508789062" y="1012.162902832"/>
			<point x="925.2448120117" y="954.9703369141"/>
			<point x="925.2448120117" y="899.9703369141" type="qcurve" smooth="yes"/>
			<point x="925.2448120117" y="837.9703369141"/>
			<point x="850.4373779297" y="732.162902832"/>
			<point x="825.4373779297" y="720.162902832" type="qcurve"/>
			<point x="788.4373779297" y="732.162902832" type="line"/>
			<point x="788.4373779297" y="757.548034668" type="line" smooth="yes"/>
			<point x="788.4373779297" y="774.548034668"/>
			<point x="773.2255249023" y="792.162902832"/>
			<point x="752.1516113281" y="792.162902832" type="qcurve" smooth="yes"/>
			<point x="702.909362793" y="792.162902832"/>
			<point x="578.9794921875" y="732.4175415039"/>
			<point x="532.2835083008" y="699.9579467773" type="qcurve" smooth="yes"/>
			<point x="489.4446411133" y="671.2560424805"/>
			<point x="457.0794067383" y="654.4227905273"/>
			<point x="432.1346435547" y="641.9439697266" type="qcurve"/>
			<point x="637.053894043" y="134.9995117188" type="line"/>
			<point x="763.2036132812" y="134.9995117188" type="line"/>
			<point x="770.6137084961" y="49" type="line"/>
			<point x="641.2798461914" y="-11" type="line"/>
			<point x="508.2798461914" y="28" type="line"/>
			<point x="452.7056274414" y="205.7435913086" type="line"/>
			<point x="436.2254638672" y="272.7064819336" type="line"/>
			<point x="426.2254638672" y="272.7064819336" type="line"/>
			<point x="390.6536865234" y="242.6755371094" type="line"/>
			<point x="371.0844726562" y="228.135559082"/>
			<point x="334.7361450195" y="186.635559082"/>
			<point x="307.2808837891" y="165.0244750977" type="qcurve" smooth="yes"/>
			<point x="219.7059326172" y="94.1997680664"/>
			<point x="114.0759887695" y="-7.1774902344"/>
		</contour>
	</outline>
	<anchor name="bottom" x="522" y="0"/>
	<anchor name="top" x="522" y="1000"/>
	<anchor name="cy_descender" x="832" y="134"/>
	<anchor name="center" x="432" y="502"/>
</glyph>
<glyph name="y" format="2">
	<unicode hex="0079"/>
	<advance width="1013"/>
	<outline>
		<contour>
			<point x="-404.8192749023" y="-419.4267578125" type="line"/>
			<point x="-363.8192749023" y="-285.4267578125" type="line"/>
			<point x="-185.3396606445" y="-285.4267578125" type="line" smooth="yes"/>
			<point x="-34.5559692383" y="-285.4267578125"/>
			<point x="202.3060913086" y="-147.4307250977"/>
			<point x="299.4370727539" y="-16" type="qcurve" smooth="yes"/>
			<point x="322.0933227539" y="14" type="line"/>
			<point x="218.0892333984" y="14" type="line"/>
			<point x="226.7588500977" y="79"/>
			<point x="151.3148803711" y="625.2876586914"/>
			<point x="114.0163574219" y="823.2876586914" type="qcurve"/>
			<point x="-25.1935424805" y="818.2876586914" type="line"/>
			<point x="-23.1435546875" y="913.2871704102" type="line"/>
			<point x="186.4531860352" y="1002.2871704102" type="line"/>
			<point x="257.5464477539" y="1002.2871704102" type="line"/>
			<point x="286.3605957031" y="888.2871704102" type="line"/>
			<point x="354.7164916992" y="157.015625" type="line"/>
			<point x="354.3369750977" y="75.8244628906" type="line"/>
			<point x="364.3369750977" y="75.8244628906" type="line"/>
			<point x="423.7716064453" y="157.0513916016" type="line" smooth="yes"/>
			<point x="534.725769043" y="315.1977539062"/>
			<point x="697.8120727539" y="626.6864013672"/>
			<point x="676.6390991211" y="741.85546875" type="qcurve" smooth="yes"/>
			<point x="663.8623046875" y="825.3120117188"/>
			<point x="622.8823242188" y="898.1051025391"/>
			<point x="622.8823242188" y="922.8162841797" type="qcurve" smooth="yes"/>
			<point x="622.8823242188" y="966.2651977539"/>
			<point x="685.602355957" y="1019.1630249023"/>
			<point x="728.7120361328" y="1019.1630249023" type="qcurve" smooth="yes"/>
			<point x="792.3728027344" y="1019.1630249023"/>
			<point x="864.3547973633" y="913.1378173828"/>
			<point x="864.3547973633" y="839.7318115234" type="qcurve" smooth="yes"/>
			<point x="864.3547973633" y="718.4354858398"/>
			<point x="548.4560546875" y="168.5947875977"/>
			<point x="445.6637573242" y="-2" type="qcurve" smooth="yes"/>
			<point x="413.6209716797" y="-45" type="line" smooth="yes"/>
			<point x="285.8278198242" y="-219.8700561523"/>
			<point x="20.8226928711" y="-480.4267578125"/>
			<point x="-175.3396606445" y="-480.4267578125" type="qcurve"/>
		</contour>
	</outline>
	<anchor name="bottom" x="782" y="0"/>
	<anchor name="top" x="504" y="1000"/>
</glyph>
<glyph name="z" format="2">
	<unicode hex="007A"/>
	<advance width="917"/>
	<outline>
		<contour>
			<point x="-7.383605957" y="11.1418457031" type="line"/>
			<point x="-78.0030517578" y="85" type="line"/>
			<point x="36.0706787109" y="217.2858276367"/>
			<point x="200.5258178711" y="405.7147827148"/>
			<point x="334.9024047852" y="557.0161743164" type="qcurve" smooth="yes"/>
			<point x="379.2747802734" y="610.0643310547"/>
			<point x="516.6729125977" y="747.4297485352"/>
			<point x="598.6205444336" y="823.0014648438" type="qcurve"/>
			<point x="188.4742431641" y="809.0014648438" type="line"/>
			<point x="124.3677978516" y="682.0024414062" type="line"/>
			<point x="32.454284668" y="682.0024414062" type="line"/>
			<point x="105.5607299805" y="952.0014648438" type="line"/>
			<point x="180.5607299805" y="1002.0014648438" type="line"/>
			<point x="737.7838745117" y="1002.0014648438" type="line"/>
			<point x="788.2440795898" y="879.0014648438" type="line"/>
			<point x="713.991394043" y="776.4297485352"/>
			<point x="589.3884277344" y="638.2229614258"/>
			<point x="499.7701416016" y="535.0006103516" type="qcurve" smooth="yes"/>
			<point x="418.8420410156" y="442.4290771484"/>
			<point x="291.2136230469" y="316.7143554688"/>
			<point x="212.3292236328" y="252" type="qcurve"/>
			<point x="602.4219360352" y="188.8543701172" type="line"/>
			<point x="703.4483032227" y="342.5867919922" type="line"/>
			<point x="796.3618164062" y="330.3052368164" type="line"/>
			<point x="685.3354492188" y="26.5728149414" type="line"/>
			<point x="607.3354492188" y="-17.4271850586" type="line"/>
			<point x="38.8495483398" y="47.3494873047" type="line"/>
		</contour>
	</outline>
	<anchor name="bottom" x="443" y="0"/>
	<anchor name="top" x="463" y="1000"/>
	<anchor name="_liga" x="0" y="0"/>
</glyph>
<glyph name="jdotless" format="2">
	<unicode hex="0237"/>
	<advance width="566"/>
	<outline>
		<contour>
			<point x="204.7371826172" y="797.001953125" type="qcurve"/>
			<point x="44.2572021484" y="793.001953125" type="line"/>
			<point x="41.8471069336" y="906.0014648438" type="line"/>
			<point x="172.6135253906" y="1002.0014648438" type="line"/>
			<point x="332.6135253906" y="1002.0014648438" type="line"/>
			<point x="376.6135253906" y="887.0014648438" type="line"/>
			<point x="337.6135253906" y="768.0014648438" type="line"/>
			<point x="232.3895874023" y="120.92578125" type="line"/>
			<point x="210.4169921875" y="-188.61328125"/>
			<point x="-30.4786376953" y="-488.1787109375"/>
			<point x="-315.6793823242" y="-488.1787109375" type="qcurve"/>
			<point x="-518.6585693359" y="-449.1787109375" type="line"/>
			<point x="-500.4486694336" y="-336.9491577148" type="line"/>
			<point x="-264.6459350586" y="-338.9491577148" type="line" smooth="yes"/>
			<point x="-132.9594116211" y="-339.5145874023"/>
			<point x="25.0568237305" y="-181.6027832031"/>
			<point x="79.6231689453" y="100.92578125" type="qcurve" smooth="yes"/>
			<point x="112.9423217773" y="265.5403442383"/>
			<point x="182.3071899414" y="636.4319458008"/>
		</contour>
	</outline>
	<anchor name="bottom" x="88" y="-436"/>
	<anchor name="top" x="320" y="1000"/>
	<anchor name="_liga" x="0" y="0"/>
</glyph>
